<?xml version="1.0" encoding="UTF-8"?>
<svg xmlns="http://www.w3.org/2000/svg" width="389" height="24" viewBox="0 0 389 24" fill="none">
  <path d="M34.34 15.16H38.072V16H32.564V15.76L35.384 12.76C35.896 12.224 36.256 11.788 36.464 11.452C36.672 11.108 36.776 10.756 36.776 10.396C36.776 9.948 36.636 9.572 36.356 9.268C36.076 8.964 35.708 8.812 35.252 8.812C34.772 8.812 34.388 8.972 34.1 9.292C33.812 9.62 33.668 10.004 33.668 10.444C33.668 10.668 33.692 10.888 33.74 11.104H32.78C32.724 10.904 32.696 10.672 32.696 10.408C32.696 9.752 32.936 9.18 33.416 8.692C33.896 8.196 34.508 7.948 35.252 7.948C35.972 7.948 36.568 8.18 37.04 8.644C37.512 9.1 37.748 9.668 37.748 10.348C37.748 10.724 37.672 11.076 37.52 11.404C37.376 11.716 37.2 12.008 36.992 12.28C36.784 12.552 36.484 12.896 36.092 13.312L34.34 15.16ZM43.0981 16V10.156H47.0341V10.984H44.0221V16H43.0981ZM47.6234 13.072C47.6074 12.24 47.9034 11.52 48.5114 10.912C49.1274 10.304 49.8514 10.008 50.6834 10.024C51.5234 10.008 52.2474 10.304 52.8554 10.912C53.4634 11.52 53.7594 12.24 53.7434 13.072C53.7594 13.896 53.4594 14.616 52.8434 15.232C52.2274 15.84 51.5034 16.136 50.6714 16.12C49.8394 16.136 49.1194 15.84 48.5114 15.232C47.9034 14.616 47.6074 13.896 47.6234 13.072ZM52.7954 13.084C52.7954 12.46 52.5914 11.936 52.1834 11.512C51.7834 11.088 51.2834 10.876 50.6834 10.876C50.0834 10.876 49.5794 11.088 49.1714 11.512C48.7714 11.928 48.5714 12.452 48.5714 13.084C48.5714 13.7 48.7714 14.22 49.1714 14.644C49.5794 15.06 50.0794 15.268 50.6714 15.268C51.2634 15.268 51.7634 15.056 52.1714 14.632C52.5874 14.208 52.7954 13.692 52.7954 13.084ZM54.9477 13.072C54.9317 12.24 55.2277 11.52 55.8357 10.912C56.4437 10.304 57.1677 10.008 58.0077 10.024C58.5117 10.024 58.9717 10.136 59.3877 10.36C59.8037 10.584 60.1477 10.896 60.4197 11.296L59.7597 11.824C59.2957 11.192 58.7157 10.876 58.0197 10.876C57.4197 10.876 56.9157 11.092 56.5077 11.524C56.0997 11.948 55.8957 12.464 55.8957 13.072C55.8957 13.688 56.0997 14.212 56.5077 14.644C56.9157 15.068 57.4197 15.28 58.0197 15.28C58.7077 15.28 59.2837 14.968 59.7477 14.344L60.4077 14.86C59.8317 15.708 59.0317 16.132 58.0077 16.132C57.1597 16.132 56.4357 15.836 55.8357 15.244C55.2437 14.644 54.9477 13.92 54.9477 13.072ZM63.165 16V10.984H61.197V10.156H66.045V10.984H64.077V16H63.165ZM72.4691 13.36H67.8491C67.9051 13.936 68.1331 14.4 68.5331 14.752C68.9331 15.104 69.4211 15.28 69.9971 15.28C70.6611 15.28 71.2571 15.016 71.7851 14.488L72.3251 15.112C71.6691 15.792 70.8891 16.132 69.9851 16.132C69.1131 16.132 68.3771 15.84 67.7771 15.256C67.1851 14.664 66.8891 13.94 66.8891 13.084C66.8891 12.236 67.1771 11.516 67.7531 10.924C68.3371 10.324 69.0451 10.024 69.8771 10.024C70.6371 10.024 71.2691 10.272 71.7731 10.768C72.2851 11.264 72.5411 11.896 72.5411 12.664C72.5411 12.888 72.5171 13.12 72.4691 13.36ZM67.8851 12.544H71.5931C71.5851 12.032 71.4171 11.624 71.0891 11.32C70.7611 11.016 70.3491 10.864 69.8531 10.864C69.3651 10.864 68.9411 11.02 68.5811 11.332C68.2211 11.636 67.9891 12.04 67.8851 12.544ZM78.6525 10.024H78.9885V16H78.0645V11.872L74.5005 16.132H74.1645V10.156H75.0885V14.296L78.6525 10.024ZM74.8965 7.228V6.856H75.6765V7.204C75.6765 7.596 75.7645 7.9 75.9405 8.116C76.1245 8.324 76.3805 8.428 76.7085 8.428C77.0445 8.428 77.3005 8.324 77.4765 8.116C77.6605 7.9 77.7525 7.596 77.7525 7.204V6.856H78.5325V7.228C78.5325 7.796 78.3645 8.256 78.0285 8.608C77.7005 8.952 77.2605 9.124 76.7085 9.124C76.1645 9.124 75.7245 8.952 75.3885 8.608C75.0605 8.256 74.8965 7.796 74.8965 7.228Z" fill="#777777"></path>
  <path d="M8.94575 4.98835C9.31266 4.64044 9.89322 4.25838 10.2356 4.13889C11.0539 3.85316 12.6791 3.83365 13.284 4.1019C15.5172 5.09199 16.1645 5.94227 16.1306 7.84239C16.125 8.15901 16.1031 8.5057 16.0727 8.80891C16.0425 9.10846 16.0037 9.36492 15.9636 9.50718C15.8827 9.79331 15.9058 10.2672 16.0145 10.5599C16.0956 10.7781 16.1209 10.9675 16.0858 11.1703C16.0577 11.3325 15.9906 11.5032 15.8819 11.7044C14.8406 13.633 14.4749 14.6405 14.5333 15.4217C14.5919 16.2086 14.6525 16.2736 15.8402 16.8309C18.2356 17.9551 18.9423 18.394 19.5332 19.1256C19.7099 19.3447 19.8733 19.6243 20 19.9121H19.0623C18.9526 19.7719 18.804 19.6081 18.6364 19.4167C18.2429 18.9675 17.4497 18.4652 16.5188 18.0754C15.7003 17.7328 14.7222 17.206 14.3454 16.9044C13.7218 16.4057 13.6606 16.2558 13.6606 15.2262C13.6606 14.4625 13.7952 13.8744 14.075 13.4143C14.303 13.0396 14.4897 12.5222 14.4901 12.2645C14.4905 12.0072 14.5864 11.7963 14.703 11.7963C14.8195 11.7963 15.02 11.565 15.1485 11.2825C15.2385 11.0842 15.2811 10.9297 15.2766 10.7989C15.2728 10.6838 15.2324 10.5871 15.156 10.4948C15.0028 10.3099 14.9914 9.95467 15.1205 9.39622C15.4102 8.14397 15.3583 6.73931 15.0036 6.23206C14.8288 5.9817 14.214 5.53949 13.6373 5.24888C11.9416 4.39535 10.0132 4.64734 9.24455 5.82318C8.74243 6.59136 8.59871 7.83711 8.8673 9.09261C9.04325 9.91484 9.04123 10.2567 8.85939 10.4765C8.67858 10.6948 8.67675 10.898 8.85149 11.2825C8.98001 11.565 9.18049 11.7963 9.29725 11.7963C9.41361 11.7963 9.50949 12.0072 9.50989 12.2645C9.5103 12.5222 9.6972 13.0396 9.92505 13.4143C10.2011 13.8683 10.3394 14.4625 10.3394 15.1962C10.3394 16.1277 10.2518 16.3793 9.76855 16.8345C9.45476 17.1304 8.47708 17.6706 7.5961 18.0348C6.55193 18.4664 5.77535 18.9468 5.36465 19.4158C5.19681 19.6077 5.04781 19.7715 4.93795 19.9121H4C4.12669 19.6243 4.29008 19.3447 4.46684 19.1256C5.05795 18.394 5.7644 17.9551 8.15984 16.8309C9.36779 16.2643 9.40732 16.22 9.46956 15.3681C9.53138 14.5211 9.3384 13.9992 8.11423 11.7044C7.86449 11.2362 7.83753 10.9594 7.9999 10.5286C8.14443 10.1449 8.14463 9.6218 8.0003 8.89061C7.69826 7.35954 8.07227 5.81627 8.94575 4.98835Z" fill="#777777"></path>
  <path fill-rule="evenodd" clip-rule="evenodd" d="M23 1H1V23H23V1ZM22 2.08789L2 2V22.2637L22 22.1758V2.08789Z" fill="#777777"></path>
  <path d="M137.02 16V10.156H141.688V16H140.752V10.984H137.944V16H137.02ZM144.167 10.156H148.127V16H147.203V10.984H145.031L145.007 11.704C144.951 13.28 144.791 14.392 144.527 15.04C144.263 15.688 143.795 16.024 143.123 16.048C143.003 16.048 142.899 16.032 142.811 16V15.22C142.939 15.236 143.019 15.244 143.051 15.244C143.419 15.244 143.683 14.96 143.843 14.392C144.011 13.824 144.107 12.92 144.131 11.68L144.167 10.156ZM149.748 13.072C149.732 12.24 150.028 11.52 150.636 10.912C151.252 10.304 151.976 10.008 152.808 10.024C153.648 10.008 154.372 10.304 154.98 10.912C155.588 11.52 155.884 12.24 155.868 13.072C155.884 13.896 155.584 14.616 154.968 15.232C154.352 15.84 153.628 16.136 152.796 16.12C151.964 16.136 151.244 15.84 150.636 15.232C150.028 14.616 149.732 13.896 149.748 13.072ZM154.92 13.084C154.92 12.46 154.716 11.936 154.308 11.512C153.908 11.088 153.408 10.876 152.808 10.876C152.208 10.876 151.704 11.088 151.296 11.512C150.896 11.928 150.696 12.452 150.696 13.084C150.696 13.7 150.896 14.22 151.296 14.644C151.704 15.06 152.204 15.268 152.796 15.268C153.388 15.268 153.888 15.056 154.296 14.632C154.712 14.208 154.92 13.692 154.92 13.084ZM165.197 17.692V16H157.493V10.156H158.417V15.184H160.865V10.156H161.789V15.184H164.249V10.156H165.173V15.184H166.121V17.692H165.197ZM171.951 12.4V16H171.087V15.244C170.639 15.836 169.983 16.132 169.119 16.132C168.511 16.132 168.019 15.984 167.643 15.688C167.267 15.384 167.079 14.984 167.079 14.488C167.079 13.992 167.271 13.596 167.655 13.3C168.039 13.004 168.547 12.856 169.179 12.856H171.027V12.352C171.027 11.88 170.899 11.516 170.643 11.26C170.395 11.004 170.051 10.876 169.611 10.876C168.955 10.876 168.387 11.188 167.907 11.812L167.295 11.308C167.815 10.452 168.607 10.024 169.671 10.024C170.375 10.024 170.931 10.232 171.339 10.648C171.747 11.056 171.951 11.64 171.951 12.4ZM171.027 13.756V13.612H169.287C168.447 13.612 168.027 13.888 168.027 14.44C168.027 14.728 168.139 14.956 168.363 15.124C168.595 15.284 168.887 15.364 169.239 15.364C169.727 15.364 170.147 15.208 170.499 14.896C170.851 14.584 171.027 14.204 171.027 13.756ZM182.062 13.492C182.062 14.268 181.786 14.904 181.234 15.4C180.69 15.888 180.03 16.132 179.254 16.132C178.67 16.132 178.142 15.984 177.67 15.688C177.206 15.384 176.838 14.984 176.566 14.488L177.226 14.02C177.794 14.852 178.466 15.268 179.242 15.268C179.786 15.268 180.23 15.108 180.574 14.788C180.918 14.46 181.09 14.032 181.09 13.504C181.09 12.992 180.914 12.592 180.562 12.304C180.218 12.016 179.726 11.872 179.086 11.872H178.306V11.596L180.382 8.944H177.106V8.08H181.858V8.356L179.758 11.056C180.398 11.12 180.942 11.368 181.39 11.8C181.838 12.224 182.062 12.788 182.062 13.492ZM184.934 15.16H188.666V16H183.158V15.76L185.978 12.76C186.49 12.224 186.85 11.788 187.058 11.452C187.266 11.108 187.37 10.756 187.37 10.396C187.37 9.948 187.23 9.572 186.95 9.268C186.67 8.964 186.302 8.812 185.846 8.812C185.366 8.812 184.982 8.972 184.694 9.292C184.406 9.62 184.262 10.004 184.262 10.444C184.262 10.668 184.286 10.888 184.334 11.104H183.374C183.318 10.904 183.29 10.672 183.29 10.408C183.29 9.752 183.53 9.18 184.01 8.692C184.49 8.196 185.102 7.948 185.846 7.948C186.566 7.948 187.162 8.18 187.634 8.644C188.106 9.1 188.342 9.668 188.342 10.348C188.342 10.724 188.266 11.076 188.114 11.404C187.97 11.716 187.794 12.008 187.586 12.28C187.378 12.552 187.078 12.896 186.686 13.312L184.934 15.16ZM190.329 16V10.024H190.665L193.437 13.312L196.197 10.024H196.521V16H195.597V12.052L193.605 14.428H193.245L191.253 12.052V16H190.329ZM199.383 10.912H201.483V11.632H197.955V11.452L199.731 9.544C200.003 9.256 200.199 9.012 200.319 8.812C200.439 8.612 200.499 8.396 200.499 8.164C200.499 7.916 200.419 7.708 200.259 7.54C200.107 7.372 199.911 7.288 199.671 7.288C199.415 7.288 199.207 7.372 199.047 7.54C198.895 7.708 198.819 7.928 198.819 8.2L198.843 8.584H198.063C198.031 8.464 198.015 8.32 198.015 8.152C198.015 7.728 198.171 7.356 198.483 7.036C198.795 6.716 199.191 6.556 199.671 6.556C200.143 6.556 200.531 6.704 200.835 7C201.147 7.288 201.303 7.656 201.303 8.104C201.303 8.424 201.219 8.72 201.051 8.992C200.891 9.264 200.619 9.604 200.235 10.012L199.383 10.912Z" fill="#777777"></path>
  <path d="M125.003 20.9997L120.969 21.0267L120.978 19.9751L123.243 19.9552L119.808 16.5195L120.558 15.7694L123.963 19.1741L123.982 16.9716L125.034 16.9623L125.003 20.9997Z" fill="#777777"></path>
  <path d="M107.034 3.031L111.067 3.00399L111.058 4.05558L108.793 4.0755L112.229 7.51113L111.479 8.26125L108.074 4.85657L108.055 7.05911L107.003 7.06836L107.034 3.031Z" fill="#777777"></path>
  <path d="M107.034 20.9998L107.007 16.9663L108.059 16.9755L108.078 19.2405L111.514 15.8049L112.264 16.555L108.86 19.9597L111.062 19.9791L111.071 21.0307L107.034 20.9998Z" fill="#777777"></path>
  <path d="M125.003 3.03091L125.03 7.06436L123.978 7.05511L123.958 4.79013L120.522 8.22576L119.772 7.47564L123.177 4.07096L120.974 4.05159L120.965 3L125.003 3.03091Z" fill="#777777"></path>
  <path fill-rule="evenodd" clip-rule="evenodd" d="M127 1H105V23H127V1ZM126 2.08789L106 2V22L126 22.0879V2.08789Z" fill="#777777"></path>
  <path d="M260.904 8.08H261.252V16H260.316V9.184L258.588 9.724L258.36 8.92L260.904 8.08ZM266.93 16V10.156H267.854V16H266.93ZM269.102 12.808L271.85 16H270.686L267.974 12.832L270.434 10.156H271.586L269.102 12.808ZM273.01 7.924C273.01 7.74 273.074 7.584 273.202 7.456C273.338 7.32 273.506 7.252 273.706 7.252C273.89 7.252 274.05 7.32 274.186 7.456C274.322 7.584 274.39 7.74 274.39 7.924C274.39 8.116 274.322 8.276 274.186 8.404C274.058 8.532 273.898 8.596 273.706 8.596C273.506 8.596 273.338 8.532 273.202 8.404C273.074 8.276 273.01 8.116 273.01 7.924ZM273.238 16V10.156H274.162V16H273.238ZM276.317 16V10.024H276.653L279.425 13.312L282.185 10.024H282.509V16H281.585V12.052L279.593 14.428H279.233L277.241 12.052V16H276.317ZM284.543 16V10.156H285.467V12.484H288.335V10.156H289.259V16H288.335V13.3H285.467V16H284.543ZM295.662 12.4V16H294.798V15.244C294.35 15.836 293.694 16.132 292.83 16.132C292.222 16.132 291.73 15.984 291.354 15.688C290.978 15.384 290.79 14.984 290.79 14.488C290.79 13.992 290.982 13.596 291.366 13.3C291.75 13.004 292.258 12.856 292.89 12.856H294.738V12.352C294.738 11.88 294.61 11.516 294.354 11.26C294.106 11.004 293.762 10.876 293.322 10.876C292.666 10.876 292.098 11.188 291.618 11.812L291.006 11.308C291.526 10.452 292.318 10.024 293.382 10.024C294.086 10.024 294.642 10.232 295.05 10.648C295.458 11.056 295.662 11.64 295.662 12.4ZM294.738 13.756V13.612H292.998C292.158 13.612 291.738 13.888 291.738 14.44C291.738 14.728 291.85 14.956 292.074 15.124C292.306 15.284 292.598 15.364 292.95 15.364C293.438 15.364 293.858 15.208 294.21 14.896C294.562 14.584 294.738 14.204 294.738 13.756ZM298.681 16V10.984H296.713V10.156H301.561V10.984H299.593V16H298.681ZM307.216 12.4V16H306.352V15.244C305.904 15.836 305.248 16.132 304.384 16.132C303.776 16.132 303.284 15.984 302.908 15.688C302.532 15.384 302.344 14.984 302.344 14.488C302.344 13.992 302.536 13.596 302.92 13.3C303.304 13.004 303.812 12.856 304.444 12.856H306.292V12.352C306.292 11.88 306.164 11.516 305.908 11.26C305.66 11.004 305.316 10.876 304.876 10.876C304.22 10.876 303.652 11.188 303.172 11.812L302.56 11.308C303.08 10.452 303.872 10.024 304.936 10.024C305.64 10.024 306.196 10.232 306.604 10.648C307.012 11.056 307.216 11.64 307.216 12.4ZM306.292 13.756V13.612H304.552C303.712 13.612 303.292 13.888 303.292 14.44C303.292 14.728 303.404 14.956 303.628 15.124C303.86 15.284 304.152 15.364 304.504 15.364C304.992 15.364 305.412 15.208 305.764 14.896C306.116 14.584 306.292 14.204 306.292 13.756Z" fill="#777777"></path>
  <path fill-rule="evenodd" clip-rule="evenodd" d="M249 1V23H227V1H249ZM241 2.05713V11H242V2.06152L248 2.08789V10H245V11H248V17H241V18H248V22L228 22.0879V17H235L235 9H234L234 16H228V2L241 2.05713Z" fill="#777777"></path>
  <path d="M370.556 15.184H371.504V17.692H370.58V16H365.984V17.692H365.06V15.184H365.72C366.2 14.688 366.456 13.56 366.488 11.8L366.524 10.156H370.556V15.184ZM366.692 15.184H369.632V10.984H367.4L367.364 11.812C367.324 13.484 367.1 14.608 366.692 15.184ZM377.11 10.156H378.094L375.214 16.816C374.782 17.8 374.122 18.292 373.234 18.292C372.922 18.292 372.622 18.252 372.333 18.172V17.392C372.67 17.432 372.906 17.452 373.042 17.452C373.362 17.452 373.626 17.38 373.834 17.236C374.042 17.1 374.218 16.86 374.362 16.516L374.674 15.82L372.25 10.156H373.246L375.178 14.812L377.11 10.156ZM379.426 16V10.156H380.35V15.184H382.798V10.156H383.722V15.184H386.182V10.156H387.106V16H379.426Z" fill="#777777"></path>
  <path fill-rule="evenodd" clip-rule="evenodd" d="M356 1H334V23H356V1ZM355 2.08789L335 2V22L355 22.0879V2.08789Z" fill="#777777"></path>
  <path fill-rule="evenodd" clip-rule="evenodd" d="M338.637 4.39376C338.429 4.50161 338.082 4.77748 337.864 5.00706C337.55 5.32295 337 6.05291 337 7.0679V19.9374H337.693H338.385L338.448 13.3008C338.506 7.17702 338.529 6.63754 338.739 6.31975C338.864 6.13033 339.147 5.86571 339.368 5.73159C339.727 5.5144 340.012 5.48775 341.988 5.48737C344.083 5.48687 344.228 5.50239 344.633 5.77088C344.868 5.92702 345.16 6.25081 345.281 6.49028C345.402 6.72974 345.501 7.12272 345.501 7.36357C345.5 7.76681 345.454 7.82036 344.916 8.04043C344.594 8.17193 344.137 8.4483 343.9 8.65474C343.664 8.86117 343.339 9.28844 343.179 9.60435C343.019 9.92013 342.848 10.3615 342.799 10.5852C342.75 10.8089 342.658 10.9919 342.595 10.9919C342.531 10.9919 342.365 11.1045 342.227 11.2421C342.088 11.3797 341.975 11.6049 341.975 11.7425C341.975 11.8802 342.088 12.1054 342.227 12.243C342.467 12.4821 342.647 12.4932 346.257 12.4932C349.867 12.4932 350.047 12.4821 350.287 12.243C350.426 12.1054 350.539 11.8802 350.539 11.7425C350.539 11.6049 350.426 11.3797 350.287 11.2421C350.149 11.1045 349.983 10.9919 349.919 10.9919C349.856 10.9919 349.764 10.8089 349.715 10.5852C349.666 10.3615 349.494 9.9175 349.332 9.59834C349.17 9.27918 348.81 8.82402 348.53 8.58668C348.251 8.34934 347.803 8.08309 347.534 7.99489C347.047 7.83525 347.044 7.83062 346.982 7.06367C346.948 6.63966 346.804 6.06915 346.663 5.79603C346.521 5.52278 346.216 5.12254 345.985 4.9066C345.753 4.69065 345.366 4.40915 345.123 4.28103C344.741 4.0791 344.171 4.04477 341.988 4.023C340.815 4.01135 339.5 3.88182 338.637 4.39376ZM345.082 4.83604C345.567 5.08777 345.79 5.35162 346.056 5.77951C346.308 6.18363 346.444 6.59225 346.483 7.05629C346.536 7.68648 346.52 7.73891 346.273 7.73891C346.05 7.73891 346.005 7.66409 346.005 7.29701C346.005 7.05391 345.918 6.6478 345.811 6.39444C345.705 6.14121 345.521 5.82543 345.402 5.69268C345.283 5.56006 344.96 5.34812 344.683 5.22176C344.255 5.02658 343.847 4.99192 341.975 4.99192C340.103 4.99192 339.695 5.02658 339.267 5.22176C338.709 5.47639 338.375 5.83186 338.138 6.39444C337.973 6.7883 337.945 7.77094 337.945 13.1773C337.945 19.443 338.021 19.4995 337.689 19.4995C337.336 19.4995 337.435 19.4553 337.469 12.9525C337.469 12.9525 337.504 9.55884 337.504 7.0679C337.504 6.12919 338.114 5.26281 338.937 4.83553C339.605 4.48897 339.631 4.48597 341.975 4.48597C344.318 4.48597 344.414 4.48948 345.082 4.83604ZM347.163 8.38649C347.435 8.46744 347.902 8.74745 348.201 9.00881C348.5 9.27004 348.832 9.6684 348.939 9.89386C349.047 10.1193 349.173 10.4585 349.221 10.6478L349.307 10.9919H346.257H343.207L343.293 10.6478C343.341 10.4585 343.462 10.1303 343.563 9.91851C343.664 9.70656 343.958 9.32822 344.216 9.07774C344.474 8.82727 344.912 8.54013 345.188 8.43967C345.464 8.3392 345.91 8.253 346.179 8.24812C346.448 8.24337 346.891 8.30555 347.163 8.38649ZM349.972 11.7425C349.972 11.9043 349.469 11.9348 346.328 11.9635C344.205 11.9827 342.635 11.9482 342.567 11.8805C342.503 11.8166 342.489 11.7022 342.536 11.6264C342.596 11.5298 343.722 11.4984 346.297 11.5217C349.465 11.5502 349.972 11.5808 349.972 11.7425ZM344.779 13.0234C344.709 13.1103 344.582 13.3977 344.497 13.662C344.382 14.0137 344.378 14.1799 344.48 14.2813C344.568 14.3682 344.66 14.3755 344.727 14.3011C344.786 14.2357 344.925 13.9479 345.036 13.6614C345.203 13.2314 345.21 13.1165 345.072 13.003C344.949 12.902 344.872 12.9073 344.779 13.0234ZM347.421 13.0138C347.318 13.1161 347.333 13.2897 347.48 13.6676C347.59 13.9507 347.728 14.2357 347.787 14.3011C347.854 14.3757 347.945 14.3697 348.03 14.2852C348.127 14.189 348.121 14.0027 348.01 13.6331C347.924 13.3486 347.788 13.0615 347.707 12.9952C347.612 12.9167 347.512 12.9232 347.421 13.0138ZM346.058 13.1618C346.018 13.2658 346.004 13.4816 346.027 13.6414C346.049 13.8013 346.153 13.932 346.257 13.932C346.388 13.932 346.446 13.8011 346.446 13.5045C346.446 13.2694 346.375 13.0536 346.289 13.0249C346.202 12.9963 346.098 13.0578 346.058 13.1618ZM342.762 13.9891C342.606 14.2602 342.479 14.5413 342.479 14.6136C342.479 14.6861 342.578 14.7449 342.699 14.7442C342.823 14.7437 343.043 14.5279 343.203 14.2503C343.359 13.9792 343.486 13.698 343.486 13.6257C343.486 13.5533 343.387 13.4945 343.266 13.4951C343.142 13.4956 342.922 13.7114 342.762 13.9891ZM349.028 13.6257C349.028 13.698 349.155 13.9792 349.311 14.2503C349.471 14.5279 349.691 14.7437 349.815 14.7442C349.936 14.7449 350.035 14.6861 350.035 14.6136C350.035 14.5413 349.908 14.2602 349.752 13.9891C349.592 13.7114 349.372 13.4956 349.248 13.4951C349.127 13.4945 349.028 13.5533 349.028 13.6257ZM346.06 14.6579C346.021 14.759 346.007 15.0874 346.029 15.3878C346.056 15.7723 346.124 15.9338 346.257 15.9338C346.402 15.9338 346.446 15.7751 346.446 15.2561C346.446 14.8253 346.389 14.5595 346.289 14.5263C346.202 14.4976 346.099 14.5569 346.06 14.6579ZM344.169 14.8443C344.096 14.893 343.939 15.1759 343.822 15.4729C343.704 15.7699 343.64 16.0654 343.68 16.1297C343.72 16.1941 343.83 16.2466 343.924 16.2466C344.019 16.2466 344.191 15.9601 344.309 15.6098C344.429 15.2496 344.474 14.9258 344.412 14.8644C344.352 14.8045 344.243 14.7955 344.169 14.8443ZM348.086 14.8666C348.04 14.9405 348.096 15.2814 348.21 15.6238C348.325 15.9663 348.495 16.2466 348.59 16.2466C348.684 16.2466 348.793 16.1946 348.833 16.1309C348.873 16.0672 348.799 15.746 348.669 15.4171C348.539 15.0882 348.373 14.7995 348.301 14.7755C348.228 14.7516 348.132 14.7925 348.086 14.8666ZM341.782 15.6798C341.6 15.9875 341.488 16.2971 341.532 16.368C341.576 16.4389 341.68 16.4968 341.762 16.4968C341.845 16.4968 342.046 16.2474 342.208 15.9426C342.371 15.6377 342.467 15.328 342.421 15.2545C342.375 15.1808 342.287 15.1206 342.225 15.1206C342.162 15.1206 341.963 15.3723 341.782 15.6798ZM350.093 15.2545C350.047 15.328 350.143 15.6377 350.306 15.9426C350.469 16.2474 350.669 16.4968 350.752 16.4968C350.834 16.4968 350.938 16.4389 350.982 16.368C351.026 16.2971 350.914 15.9875 350.732 15.6798C350.551 15.3723 350.352 15.1206 350.289 15.1206C350.227 15.1206 350.139 15.1808 350.093 15.2545ZM346.06 16.6597C346.021 16.7608 346.007 17.0892 346.029 17.3896C346.056 17.7741 346.124 17.9356 346.257 17.9356C346.402 17.9356 346.446 17.7769 346.446 17.2579C346.446 16.8271 346.389 16.5613 346.289 16.5281C346.202 16.4995 346.099 16.5588 346.06 16.6597ZM343.393 16.7768C343.324 16.8637 343.197 17.151 343.111 17.4154C343.005 17.7425 342.996 17.937 343.084 18.0238C343.154 18.094 343.269 18.1169 343.337 18.0748C343.406 18.0325 343.548 17.7477 343.653 17.4421C343.808 16.9906 343.813 16.8612 343.682 16.7526C343.565 16.6563 343.484 16.6632 343.393 16.7768ZM348.749 16.8151C348.707 16.8574 348.757 17.1408 348.862 17.4449C348.966 17.7491 349.108 18.0325 349.177 18.0748C349.245 18.1169 349.36 18.0938 349.431 18.0232C349.519 17.9356 349.502 17.7231 349.378 17.3524C349.278 17.0538 349.113 16.7936 349.011 16.774C348.91 16.7544 348.792 16.773 348.749 16.8151ZM340.774 17.4314C340.592 17.7391 340.48 18.0487 340.524 18.1195C340.568 18.1905 340.657 18.2484 340.721 18.2484C340.786 18.2484 340.985 18.018 341.164 17.7363C341.343 17.4547 341.458 17.145 341.421 17.0482C341.384 16.9514 341.297 16.8722 341.228 16.8722C341.16 16.8722 340.955 17.1239 340.774 17.4314ZM351.093 17.0482C351.056 17.145 351.171 17.4547 351.35 17.7363C351.529 18.018 351.728 18.2484 351.793 18.2484C351.857 18.2484 351.946 18.1905 351.99 18.1195C352.034 18.0487 351.922 17.7391 351.74 17.4314C351.559 17.1239 351.354 16.8722 351.286 16.8722C351.217 16.8722 351.13 16.9514 351.093 17.0482ZM346.06 18.6615C346.021 18.7626 346.007 19.091 346.029 19.3914C346.056 19.7759 346.124 19.9374 346.257 19.9374C346.402 19.9374 346.446 19.7787 346.446 19.2597C346.446 18.8289 346.389 18.5631 346.289 18.5299C346.202 18.5013 346.099 18.5606 346.06 18.6615ZM339.991 18.7801C339.922 18.8662 339.768 19.126 339.65 19.3575C339.507 19.6377 339.477 19.8203 339.56 19.9034C339.629 19.9721 339.748 19.9899 339.825 19.9431C339.901 19.8963 340.078 19.6345 340.218 19.3617C340.358 19.0887 340.439 18.811 340.398 18.7446C340.357 18.6782 340.276 18.6238 340.22 18.6238C340.163 18.6238 340.06 18.6942 339.991 18.7801ZM342.499 19.1074C342.418 19.3734 342.353 19.6831 342.353 19.7956C342.353 19.908 342.43 20 342.524 20C342.619 20 342.789 19.7588 342.902 19.4641C343.016 19.1694 343.108 18.8597 343.108 18.776C343.108 18.6922 343.004 18.6238 342.876 18.6238C342.716 18.6238 342.599 18.7735 342.499 19.1074ZM349.406 18.776C349.406 18.8597 349.498 19.1694 349.612 19.4641C349.725 19.7588 349.895 20 349.99 20C350.084 20 350.161 19.908 350.161 19.7956C350.161 19.6831 350.096 19.3734 350.015 19.1074C349.915 18.7735 349.798 18.6238 349.638 18.6238C349.51 18.6238 349.406 18.6922 349.406 18.776ZM352.12 18.738C352.077 18.808 352.156 19.0887 352.296 19.3617C352.436 19.6345 352.613 19.8963 352.689 19.9431C352.766 19.9899 352.887 19.9701 352.958 19.899C353.047 19.8103 352.995 19.6035 352.79 19.2373C352.626 18.9444 352.426 18.6836 352.345 18.6577C352.265 18.6318 352.164 18.6679 352.12 18.738Z" fill="#777777"></path>
</svg>
