<?xml version="1.0" encoding="UTF-8"?>
<svg xmlns="http://www.w3.org/2000/svg" width="406" height="24" viewBox="0 0 406 24" fill="none">
  <path d="M38.312 13.708V14.524H37.16V16H36.224V14.524H32.252V14.26L34.856 8.08H35.816L33.44 13.708H36.224V11.068H37.16V13.708H38.312ZM42.9575 16V10.156H46.8935V10.984H43.8815V16H42.9575ZM47.4828 13.072C47.4668 12.24 47.7628 11.52 48.3708 10.912C48.9868 10.304 49.7108 10.008 50.5428 10.024C51.3828 10.008 52.1068 10.304 52.7148 10.912C53.3228 11.52 53.6188 12.24 53.6028 13.072C53.6188 13.896 53.3188 14.616 52.7028 15.232C52.0868 15.84 51.3628 16.136 50.5308 16.12C49.6988 16.136 48.9788 15.84 48.3708 15.232C47.7628 14.616 47.4668 13.896 47.4828 13.072ZM52.6548 13.084C52.6548 12.46 52.4508 11.936 52.0428 11.512C51.6428 11.088 51.1428 10.876 50.5428 10.876C49.9428 10.876 49.4388 11.088 49.0308 11.512C48.6308 11.928 48.4308 12.452 48.4308 13.084C48.4308 13.7 48.6308 14.22 49.0308 14.644C49.4388 15.06 49.9388 15.268 50.5308 15.268C51.1228 15.268 51.6228 15.056 52.0308 14.632C52.4468 14.208 52.6548 13.692 52.6548 13.084ZM54.807 13.072C54.791 12.24 55.087 11.52 55.695 10.912C56.303 10.304 57.027 10.008 57.867 10.024C58.371 10.024 58.831 10.136 59.247 10.36C59.663 10.584 60.007 10.896 60.279 11.296L59.619 11.824C59.155 11.192 58.575 10.876 57.879 10.876C57.279 10.876 56.775 11.092 56.367 11.524C55.959 11.948 55.755 12.464 55.755 13.072C55.755 13.688 55.959 14.212 56.367 14.644C56.775 15.068 57.279 15.28 57.879 15.28C58.567 15.28 59.143 14.968 59.607 14.344L60.267 14.86C59.691 15.708 58.891 16.132 57.867 16.132C57.019 16.132 56.295 15.836 55.695 15.244C55.103 14.644 54.807 13.92 54.807 13.072ZM63.0244 16V10.984H61.0564V10.156H65.9044V10.984H63.9364V16H63.0244ZM72.3284 13.36H67.7084C67.7644 13.936 67.9924 14.4 68.3924 14.752C68.7924 15.104 69.2804 15.28 69.8564 15.28C70.5204 15.28 71.1164 15.016 71.6444 14.488L72.1844 15.112C71.5284 15.792 70.7484 16.132 69.8444 16.132C68.9724 16.132 68.2364 15.84 67.6364 15.256C67.0444 14.664 66.7484 13.94 66.7484 13.084C66.7484 12.236 67.0364 11.516 67.6124 10.924C68.1964 10.324 68.9044 10.024 69.7364 10.024C70.4964 10.024 71.1284 10.272 71.6324 10.768C72.1444 11.264 72.4004 11.896 72.4004 12.664C72.4004 12.888 72.3764 13.12 72.3284 13.36ZM67.7444 12.544H71.4524C71.4444 12.032 71.2764 11.624 70.9484 11.32C70.6204 11.016 70.2084 10.864 69.7124 10.864C69.2244 10.864 68.8004 11.02 68.4404 11.332C68.0804 11.636 67.8484 12.04 67.7444 12.544ZM78.5119 10.024H78.8479V16H77.9239V11.872L74.3599 16.132H74.0239V10.156H74.9479V14.296L78.5119 10.024ZM74.7559 7.228V6.856H75.5359V7.204C75.5359 7.596 75.6239 7.9 75.7999 8.116C75.9839 8.324 76.2399 8.428 76.5679 8.428C76.9039 8.428 77.1599 8.324 77.3359 8.116C77.5199 7.9 77.6119 7.596 77.6119 7.204V6.856H78.3919V7.228C78.3919 7.796 78.2239 8.256 77.8879 8.608C77.5599 8.952 77.1199 9.124 76.5679 9.124C76.0239 9.124 75.5839 8.952 75.2479 8.608C74.9199 8.256 74.7559 7.796 74.7559 7.228Z" fill="#777777"></path>
  <path d="M8.94575 4.98835C9.31266 4.64044 9.89322 4.25838 10.2356 4.13889C11.0539 3.85316 12.6791 3.83365 13.284 4.1019C15.5172 5.09199 16.1645 5.94227 16.1306 7.84239C16.125 8.15901 16.1031 8.5057 16.0727 8.80891C16.0425 9.10846 16.0038 9.36492 15.9636 9.50718C15.8827 9.79331 15.9058 10.2672 16.0145 10.5599C16.0956 10.7781 16.1209 10.9675 16.0858 11.1703C16.0577 11.3325 15.9906 11.5032 15.8819 11.7044C14.8406 13.633 14.4749 14.6405 14.5333 15.4217C14.5919 16.2086 14.6525 16.2736 15.8402 16.8309C18.2356 17.9551 18.9423 18.394 19.5332 19.1256C19.7099 19.3447 19.8733 19.6243 20 19.9121H19.0623C18.9526 19.7719 18.804 19.6081 18.6364 19.4167C18.2429 18.9675 17.4497 18.4652 16.5188 18.0754C15.7003 17.7328 14.7222 17.206 14.3454 16.9044C13.7218 16.4057 13.6606 16.2558 13.6606 15.2262C13.6606 14.4625 13.7952 13.8744 14.075 13.4143C14.303 13.0396 14.4897 12.5222 14.4901 12.2645C14.4905 12.0072 14.5864 11.7963 14.703 11.7963C14.8195 11.7963 15.02 11.565 15.1485 11.2825C15.2385 11.0842 15.2811 10.9297 15.2766 10.7989C15.2728 10.6838 15.2324 10.5871 15.156 10.4948C15.0028 10.3099 14.9914 9.95467 15.1205 9.39622C15.4102 8.14397 15.3583 6.7393 15.0036 6.23206C14.8288 5.9817 14.214 5.53949 13.6373 5.24888C11.9416 4.39535 10.0132 4.64734 9.24455 5.82318C8.74243 6.59136 8.59871 7.83711 8.8673 9.09261C9.04325 9.91484 9.04123 10.2567 8.85939 10.4765C8.67858 10.6948 8.67675 10.898 8.85149 11.2825C8.98001 11.565 9.18049 11.7963 9.29725 11.7963C9.41361 11.7963 9.50949 12.0072 9.50989 12.2645C9.5103 12.5222 9.6972 13.0396 9.92505 13.4143C10.2011 13.8683 10.3394 14.4625 10.3394 15.1962C10.3394 16.1277 10.2518 16.3793 9.76855 16.8345C9.45476 17.1304 8.47708 17.6706 7.5961 18.0348C6.55193 18.4664 5.77535 18.9468 5.36465 19.4158C5.19681 19.6077 5.04781 19.7715 4.93795 19.9121H4C4.12669 19.6243 4.29008 19.3447 4.46684 19.1256C5.05795 18.394 5.7644 17.9551 8.15984 16.8309C9.36779 16.2643 9.40732 16.22 9.46956 15.3681C9.53138 14.5211 9.3384 13.9992 8.11423 11.7044C7.86449 11.2362 7.83753 10.9594 7.9999 10.5286C8.14443 10.1449 8.14463 9.6218 8.0003 8.89061C7.69826 7.35954 8.07227 5.81627 8.94575 4.98835Z" fill="#777777"></path>
  <path fill-rule="evenodd" clip-rule="evenodd" d="M23 1H1V23H23V1ZM22 2.08789L2 2V22.2637L22 22.1758V2.08789Z" fill="#777777"></path>
  <path d="M137.02 16V10.156H141.688V16H140.752V10.984H137.944V16H137.02ZM144.167 10.156H148.127V16H147.203V10.984H145.031L145.007 11.704C144.951 13.28 144.791 14.392 144.527 15.04C144.263 15.688 143.795 16.024 143.123 16.048C143.003 16.048 142.899 16.032 142.811 16V15.22C142.939 15.236 143.019 15.244 143.051 15.244C143.419 15.244 143.683 14.96 143.843 14.392C144.011 13.824 144.107 12.92 144.131 11.68L144.167 10.156ZM149.748 13.072C149.732 12.24 150.028 11.52 150.636 10.912C151.252 10.304 151.976 10.008 152.808 10.024C153.648 10.008 154.372 10.304 154.98 10.912C155.588 11.52 155.884 12.24 155.868 13.072C155.884 13.896 155.584 14.616 154.968 15.232C154.352 15.84 153.628 16.136 152.796 16.12C151.964 16.136 151.244 15.84 150.636 15.232C150.028 14.616 149.732 13.896 149.748 13.072ZM154.92 13.084C154.92 12.46 154.716 11.936 154.308 11.512C153.908 11.088 153.408 10.876 152.808 10.876C152.208 10.876 151.704 11.088 151.296 11.512C150.896 11.928 150.696 12.452 150.696 13.084C150.696 13.7 150.896 14.22 151.296 14.644C151.704 15.06 152.204 15.268 152.796 15.268C153.388 15.268 153.888 15.056 154.296 14.632C154.712 14.208 154.92 13.692 154.92 13.084ZM165.197 17.692V16H157.493V10.156H158.417V15.184H160.865V10.156H161.789V15.184H164.249V10.156H165.173V15.184H166.121V17.692H165.197ZM171.951 12.4V16H171.087V15.244C170.639 15.836 169.983 16.132 169.119 16.132C168.511 16.132 168.019 15.984 167.643 15.688C167.267 15.384 167.079 14.984 167.079 14.488C167.079 13.992 167.271 13.596 167.655 13.3C168.039 13.004 168.547 12.856 169.179 12.856H171.027V12.352C171.027 11.88 170.899 11.516 170.643 11.26C170.395 11.004 170.051 10.876 169.611 10.876C168.955 10.876 168.387 11.188 167.907 11.812L167.295 11.308C167.815 10.452 168.607 10.024 169.671 10.024C170.375 10.024 170.931 10.232 171.339 10.648C171.747 11.056 171.951 11.64 171.951 12.4ZM171.027 13.756V13.612H169.287C168.447 13.612 168.027 13.888 168.027 14.44C168.027 14.728 168.139 14.956 168.363 15.124C168.595 15.284 168.887 15.364 169.239 15.364C169.727 15.364 170.147 15.208 170.499 14.896C170.851 14.584 171.027 14.204 171.027 13.756ZM179.158 8.08H179.506V16H178.57V9.184L176.842 9.724L176.614 8.92L179.158 8.08ZM186.801 10.624C186.801 10.928 186.753 11.22 186.657 11.5C186.577 11.756 186.469 11.988 186.333 12.196C186.205 12.412 185.997 12.728 185.709 13.144L183.741 16H182.637L184.653 13.096C184.461 13.168 184.237 13.204 183.981 13.204C183.285 13.204 182.681 12.952 182.169 12.448C181.657 11.944 181.401 11.332 181.401 10.612C181.401 9.86 181.665 9.228 182.193 8.716C182.721 8.204 183.361 7.948 184.113 7.948C184.857 7.948 185.489 8.208 186.009 8.728C186.537 9.24 186.801 9.872 186.801 10.624ZM185.877 10.6C185.877 10.088 185.709 9.66 185.373 9.316C185.037 8.972 184.617 8.8 184.113 8.8C183.609 8.8 183.185 8.972 182.841 9.316C182.497 9.66 182.325 10.088 182.325 10.6C182.325 11.104 182.497 11.532 182.841 11.884C183.185 12.236 183.609 12.412 184.113 12.412C184.617 12.412 185.037 12.236 185.373 11.884C185.709 11.532 185.877 11.104 185.877 10.6ZM188.922 14.968C188.442 14.184 188.202 13.184 188.202 11.968C188.202 10.752 188.446 9.78 188.934 9.052C189.43 8.316 190.154 7.948 191.106 7.948C192.066 7.948 192.786 8.316 193.266 9.052C193.754 9.78 193.998 10.752 193.998 11.968C193.998 13.184 193.758 14.184 193.278 14.968C192.798 15.744 192.074 16.132 191.106 16.132C190.138 16.132 189.41 15.744 188.922 14.968ZM193.026 11.98C193.026 9.868 192.386 8.812 191.106 8.812C189.818 8.812 189.174 9.868 189.174 11.98C189.174 13.02 189.334 13.828 189.654 14.404C189.974 14.98 190.458 15.268 191.106 15.268C191.754 15.268 192.234 14.98 192.546 14.404C192.866 13.828 193.026 13.02 193.026 11.98ZM195.813 16V10.024H196.149L198.921 13.312L201.681 10.024H202.005V16H201.081V12.052L199.089 14.428H198.729L196.737 12.052V16H195.813ZM204.868 10.912H206.968V11.632H203.44V11.452L205.216 9.544C205.488 9.256 205.684 9.012 205.804 8.812C205.924 8.612 205.984 8.396 205.984 8.164C205.984 7.916 205.904 7.708 205.744 7.54C205.592 7.372 205.396 7.288 205.156 7.288C204.9 7.288 204.692 7.372 204.532 7.54C204.38 7.708 204.304 7.928 204.304 8.2L204.328 8.584H203.548C203.516 8.464 203.5 8.32 203.5 8.152C203.5 7.728 203.656 7.356 203.968 7.036C204.28 6.716 204.676 6.556 205.156 6.556C205.628 6.556 206.016 6.704 206.32 7C206.632 7.288 206.788 7.656 206.788 8.104C206.788 8.424 206.704 8.72 206.536 8.992C206.376 9.264 206.104 9.604 205.72 10.012L204.868 10.912Z" fill="#777777"></path>
  <path d="M125.003 20.9997L120.969 21.0267L120.978 19.9751L123.243 19.9552L119.808 16.5195L120.558 15.7694L123.963 19.1741L123.982 16.9716L125.034 16.9623L125.003 20.9997Z" fill="#777777"></path>
  <path d="M107.034 3.031L111.067 3.00399L111.058 4.05558L108.793 4.0755L112.229 7.51113L111.479 8.26125L108.074 4.85657L108.055 7.05911L107.003 7.06836L107.034 3.031Z" fill="#777777"></path>
  <path d="M107.034 20.9998L107.007 16.9663L108.059 16.9755L108.078 19.2405L111.514 15.8049L112.264 16.555L108.86 19.9597L111.062 19.9791L111.071 21.0307L107.034 20.9998Z" fill="#777777"></path>
  <path d="M125.003 3.03091L125.03 7.06436L123.978 7.05511L123.958 4.79013L120.522 8.22576L119.772 7.47564L123.177 4.07096L120.974 4.05159L120.965 3L125.003 3.03091Z" fill="#777777"></path>
  <path fill-rule="evenodd" clip-rule="evenodd" d="M127 1H105V23H127V1ZM126 2.08789L106 2V22L126 22.0879V2.08789Z" fill="#777777"></path>
  <path d="M269.808 13.492C269.808 14.268 269.532 14.904 268.98 15.4C268.436 15.888 267.776 16.132 267 16.132C266.416 16.132 265.888 15.984 265.416 15.688C264.952 15.384 264.584 14.984 264.312 14.488L264.972 14.02C265.54 14.852 266.212 15.268 266.988 15.268C267.532 15.268 267.976 15.108 268.32 14.788C268.664 14.46 268.836 14.032 268.836 13.504C268.836 12.992 268.66 12.592 268.308 12.304C267.964 12.016 267.472 11.872 266.832 11.872H266.052V11.596L268.128 8.944H264.852V8.08H269.604V8.356L267.504 11.056C268.144 11.12 268.688 11.368 269.136 11.8C269.584 12.224 269.808 12.788 269.808 13.492ZM274.84 16V10.156H275.764V16H274.84ZM277.012 12.808L279.76 16H278.596L275.884 12.832L278.344 10.156H279.496L277.012 12.808ZM280.92 7.924C280.92 7.74 280.984 7.584 281.112 7.456C281.248 7.32 281.416 7.252 281.616 7.252C281.8 7.252 281.96 7.32 282.096 7.456C282.232 7.584 282.3 7.74 282.3 7.924C282.3 8.116 282.232 8.276 282.096 8.404C281.968 8.532 281.808 8.596 281.616 8.596C281.416 8.596 281.248 8.532 281.112 8.404C280.984 8.276 280.92 8.116 280.92 7.924ZM281.148 16V10.156H282.072V16H281.148ZM284.227 16V10.024H284.563L287.335 13.312L290.095 10.024H290.419V16H289.495V12.052L287.503 14.428H287.143L285.151 12.052V16H284.227ZM292.454 16V10.156H293.378V12.484H296.246V10.156H297.17V16H296.246V13.3H293.378V16H292.454ZM303.572 12.4V16H302.708V15.244C302.26 15.836 301.604 16.132 300.74 16.132C300.132 16.132 299.64 15.984 299.264 15.688C298.888 15.384 298.7 14.984 298.7 14.488C298.7 13.992 298.892 13.596 299.276 13.3C299.66 13.004 300.168 12.856 300.8 12.856H302.648V12.352C302.648 11.88 302.52 11.516 302.264 11.26C302.016 11.004 301.672 10.876 301.232 10.876C300.576 10.876 300.008 11.188 299.528 11.812L298.916 11.308C299.436 10.452 300.228 10.024 301.292 10.024C301.996 10.024 302.552 10.232 302.96 10.648C303.368 11.056 303.572 11.64 303.572 12.4ZM302.648 13.756V13.612H300.908C300.068 13.612 299.648 13.888 299.648 14.44C299.648 14.728 299.76 14.956 299.984 15.124C300.216 15.284 300.508 15.364 300.86 15.364C301.348 15.364 301.768 15.208 302.12 14.896C302.472 14.584 302.648 14.204 302.648 13.756ZM306.591 16V10.984H304.623V10.156H309.471V10.984H307.503V16H306.591ZM315.235 10.024H315.571V16H314.647V11.872L311.083 16.132H310.747V10.156H311.671V14.296L315.235 10.024Z" fill="#777777"></path>
  <path fill-rule="evenodd" clip-rule="evenodd" d="M255 1V23H233V1H255ZM247 2.05713V11H248V2.06152L254 2.08789V10H251V11H254V17H247V18H254V22L234 22.0879V17H241L241 9H240L240 16H234V2L247 2.05713Z" fill="#777777"></path>
  <path d="M378.808 14.236C378.808 14.764 378.616 15.192 378.232 15.52C377.856 15.84 377.356 16 376.732 16H374.02V10.156H376.432C377.008 10.156 377.464 10.296 377.8 10.576C378.144 10.856 378.316 11.232 378.316 11.704C378.316 12.192 378.112 12.568 377.704 12.832C378.44 13.088 378.808 13.556 378.808 14.236ZM374.944 10.984V12.544H376.444C377.084 12.544 377.404 12.28 377.404 11.752C377.404 11.24 377.084 10.984 376.444 10.984H374.944ZM377.884 14.236C377.884 13.964 377.776 13.752 377.56 13.6C377.352 13.44 377.056 13.36 376.672 13.36H374.944V15.184H376.672C377.048 15.184 377.344 15.1 377.56 14.932C377.776 14.756 377.884 14.524 377.884 14.236ZM384.927 12.4V16H384.063V15.244C383.615 15.836 382.959 16.132 382.095 16.132C381.487 16.132 380.995 15.984 380.619 15.688C380.243 15.384 380.055 14.984 380.055 14.488C380.055 13.992 380.247 13.596 380.631 13.3C381.015 13.004 381.523 12.856 382.155 12.856H384.003V12.352C384.003 11.88 383.875 11.516 383.619 11.26C383.371 11.004 383.027 10.876 382.587 10.876C381.931 10.876 381.363 11.188 380.883 11.812L380.271 11.308C380.791 10.452 381.583 10.024 382.647 10.024C383.351 10.024 383.907 10.232 384.315 10.648C384.723 11.056 384.927 11.64 384.927 12.4ZM384.003 13.756V13.612H382.263C381.423 13.612 381.003 13.888 381.003 14.44C381.003 14.728 381.115 14.956 381.339 15.124C381.571 15.284 381.863 15.364 382.215 15.364C382.703 15.364 383.123 15.208 383.475 14.896C383.827 14.584 384.003 14.204 384.003 13.756ZM386.887 16V10.156H387.811V12.484H390.679V10.156H391.603V16H390.679V13.3H387.811V16H386.887ZM393.625 16V10.156H394.549V12.484H397.417V10.156H398.341V16H397.417V13.3H394.549V16H393.625ZM404.744 12.4V16H403.88V15.244C403.432 15.836 402.776 16.132 401.912 16.132C401.304 16.132 400.812 15.984 400.436 15.688C400.06 15.384 399.872 14.984 399.872 14.488C399.872 13.992 400.064 13.596 400.448 13.3C400.832 13.004 401.34 12.856 401.972 12.856H403.82V12.352C403.82 11.88 403.692 11.516 403.436 11.26C403.188 11.004 402.844 10.876 402.404 10.876C401.748 10.876 401.18 11.188 400.7 11.812L400.088 11.308C400.608 10.452 401.4 10.024 402.464 10.024C403.168 10.024 403.724 10.232 404.132 10.648C404.54 11.056 404.744 11.64 404.744 12.4ZM403.82 13.756V13.612H402.08C401.24 13.612 400.82 13.888 400.82 14.44C400.82 14.728 400.932 14.956 401.156 15.124C401.388 15.284 401.68 15.364 402.032 15.364C402.52 15.364 402.94 15.208 403.292 14.896C403.644 14.584 403.82 14.204 403.82 13.756Z" fill="#777777"></path>
  <path fill-rule="evenodd" clip-rule="evenodd" d="M364 1H342V23H364V1ZM363 2.08789L343 2V22L363 22.0879V2.08789Z" fill="#777777"></path>
  <path fill-rule="evenodd" clip-rule="evenodd" d="M350.95 7.87877C350.773 7.73216 350.792 7.64881 351.071 7.35229C351.253 7.15845 351.571 7 351.777 7C351.983 7 352.275 7.11168 352.426 7.2481C352.637 7.43878 352.7 7.71626 352.7 8.44737C352.7 8.9815 352.766 9.39854 352.85 9.39854C352.932 9.39854 353 9.33108 353 9.24863C353 9.16619 353.129 9.09873 353.288 9.09873C353.446 9.09873 353.614 9.18312 353.663 9.28611C353.732 9.43602 353.768 9.43602 353.837 9.28611C353.886 9.18312 354.03 9.09873 354.158 9.09873C354.287 9.09873 354.482 9.21685 354.591 9.36107C354.701 9.50528 354.793 9.84257 354.795 10.1106L354.8 10.5978H357.8C360.6 10.5978 360.82 10.6178 361.1 10.8976C361.265 11.0625 361.4 11.3355 361.4 11.5045C361.4 11.6733 361.241 11.96 361.047 12.1416C360.834 12.3404 360.553 12.9452 360.341 13.6615C360.13 14.3769 359.787 15.117 359.481 15.5175L358.972 16.1839L359.968 18.3666H361.676C361.855 18.3666 362 18.5084 362 18.6833C362 18.8582 361.855 19 361.676 19H344.324C344.145 19 344 18.8582 344 18.6833C344 18.5084 344.145 18.3666 344.324 18.3666H346.033L346.898 16.4314L346.356 15.8757C346.059 15.57 345.682 15.0164 345.52 14.6454C345.357 14.2743 345.178 13.6522 345.121 13.2629C345.058 12.8348 344.876 12.4023 344.659 12.1684C344.461 11.9557 344.301 11.6671 344.302 11.527C344.304 11.3869 344.365 11.178 344.438 11.0624C344.52 10.9326 344.49 10.6248 344.36 10.2565C344.245 9.92877 344.15 9.50528 344.15 9.31549C344.15 9.12556 344.26 8.86052 344.394 8.7265C344.542 8.57869 344.822 8.50074 345.106 8.52847C345.501 8.56685 345.679 8.7337 346.232 9.58593L346.888 10.5978H351.182L351.228 10.0357C351.269 9.54755 351.329 9.4672 351.688 9.42613C352.086 9.38025 352.1 9.34802 352.1 8.4892C352.1 7.71896 352.062 7.59964 351.818 7.59964C351.664 7.59964 351.452 7.70172 351.349 7.8263C351.203 8.00169 351.113 8.01353 350.95 7.87877ZM358.14 18.3666H347.715L348.861 17.1938L356.975 17.1964L357.537 17.7293C357.847 18.0224 358.143 18.3285 358.143 18.3644C358.143 18.3644 358.142 18.3659 358.14 18.3666ZM359.226 18.3666H359.196C359.087 18.3364 358.756 18.0685 358.396 17.7149C357.657 16.9868 357.653 16.9779 357.987 16.7922C358.173 16.6892 358.362 16.6024 358.406 16.5994C358.451 16.5966 358.674 16.9733 358.901 17.4365C359.128 17.8999 359.276 18.3174 359.229 18.3644L359.226 18.3666ZM345.934 10.2605C345.837 10.0751 345.627 9.73779 345.468 9.51098C345.31 9.28416 345.083 9.09873 344.965 9.09873C344.847 9.09873 344.75 9.17518 344.75 9.26872C344.75 9.36227 344.828 9.69956 344.924 10.0183C345.081 10.5423 345.146 10.5978 345.604 10.5978C346.082 10.5978 346.1 10.5785 345.934 10.2605ZM353 10.5978C354.1 10.5978 354.2 10.5728 354.2 10.298C354.2 10.0232 354.1 9.99818 353 9.99818C351.9 9.99818 351.8 10.0232 351.8 10.298C351.8 10.5728 351.9 10.5978 353 10.5978ZM352.934 11.761C359.742 11.7271 360.725 11.6938 360.725 11.4973C360.725 11.3007 359.738 11.2675 352.897 11.2336C347.345 11.206 345.04 11.2426 344.968 11.3591C344.912 11.4494 344.928 11.5856 345.004 11.6616C345.086 11.7434 348.322 11.7839 352.934 11.761ZM359.74 13.5943C359.911 13.0337 360.05 12.5349 360.05 12.4859C360.05 12.4369 356.802 12.3967 352.833 12.3967H345.616L345.716 13.1088C345.772 13.5004 345.987 14.1755 346.195 14.6091C346.403 15.0426 346.804 15.5734 347.086 15.7884C347.369 16.0035 347.853 16.2699 348.162 16.3803C348.577 16.5282 349.772 16.5825 352.7 16.5868C354.886 16.59 356.914 16.5261 357.206 16.445C357.498 16.3639 357.96 16.1338 358.231 15.9335C358.503 15.7334 358.883 15.3544 359.078 15.0916C359.272 14.8287 359.57 14.155 359.74 13.5943ZM347.528 17.7909C347.897 17.4289 348.148 17.0865 348.087 17.0301C348.025 16.9737 347.835 16.8856 347.664 16.8342C347.403 16.7558 347.296 16.8624 347.001 17.4915C346.807 17.9044 346.696 18.2889 346.753 18.3459C346.81 18.4028 347.158 18.1531 347.528 17.7909Z" fill="#777777"></path>
</svg>
