<?xml version="1.0" encoding="UTF-8" standalone="no"?>
<svg xmlns="http://www.w3.org/2000/svg" xmlns:xlink="http://www.w3.org/1999/xlink" xmlns:serif="http://www.serif.com/" width="100%" height="100%" viewBox="0 0 401 24" version="1.1" xml:space="preserve" style="fill-rule:evenodd;clip-rule:evenodd;stroke-linejoin:round;stroke-miterlimit:2;">
    <rect id="Artboard1" x="0" y="0" width="401" height="24" style="fill:none;"></rect>
    <g id="Artboard11" serif:id="Artboard1">
        <path d="M34.34,15.16L38.072,15.16L38.072,16L32.564,16L32.564,15.76L35.384,12.76C35.896,12.224 36.256,11.788 36.464,11.452C36.672,11.108 36.776,10.756 36.776,10.396C36.776,9.948 36.636,9.572 36.356,9.268C36.076,8.964 35.708,8.812 35.252,8.812C34.772,8.812 34.388,8.972 34.1,9.292C33.812,9.62 33.668,10.004 33.668,10.444C33.668,10.668 33.692,10.888 33.74,11.104L32.78,11.104C32.724,10.904 32.696,10.672 32.696,10.408C32.696,9.752 32.936,9.18 33.416,8.692C33.896,8.196 34.508,7.948 35.252,7.948C35.972,7.948 36.568,8.18 37.04,8.644C37.512,9.1 37.748,9.668 37.748,10.348C37.748,10.724 37.672,11.076 37.52,11.404C37.376,11.716 37.2,12.008 36.992,12.28C36.784,12.552 36.484,12.896 36.092,13.312L34.34,15.16ZM43.098,16L43.098,10.156L47.034,10.156L47.034,10.984L44.022,10.984L44.022,16L43.098,16ZM47.623,13.072C47.607,12.24 47.903,11.52 48.511,10.912C49.127,10.304 49.851,10.008 50.683,10.024C51.523,10.008 52.247,10.304 52.855,10.912C53.463,11.52 53.759,12.24 53.743,13.072C53.759,13.896 53.459,14.616 52.843,15.232C52.227,15.84 51.503,16.136 50.671,16.12C49.839,16.136 49.119,15.84 48.511,15.232C47.903,14.616 47.607,13.896 47.623,13.072ZM52.795,13.084C52.795,12.46 52.591,11.936 52.183,11.512C51.783,11.088 51.283,10.876 50.683,10.876C50.083,10.876 49.579,11.088 49.171,11.512C48.771,11.928 48.571,12.452 48.571,13.084C48.571,13.7 48.771,14.22 49.171,14.644C49.579,15.06 50.079,15.268 50.671,15.268C51.263,15.268 51.763,15.056 52.171,14.632C52.587,14.208 52.795,13.692 52.795,13.084ZM54.948,13.072C54.932,12.24 55.228,11.52 55.836,10.912C56.444,10.304 57.168,10.008 58.008,10.024C58.512,10.024 58.972,10.136 59.388,10.36C59.804,10.584 60.148,10.896 60.42,11.296L59.76,11.824C59.296,11.192 58.716,10.876 58.02,10.876C57.42,10.876 56.916,11.092 56.508,11.524C56.1,11.948 55.896,12.464 55.896,13.072C55.896,13.688 56.1,14.212 56.508,14.644C56.916,15.068 57.42,15.28 58.02,15.28C58.708,15.28 59.284,14.968 59.748,14.344L60.408,14.86C59.832,15.708 59.032,16.132 58.008,16.132C57.16,16.132 56.436,15.836 55.836,15.244C55.244,14.644 54.948,13.92 54.948,13.072ZM63.165,16L63.165,10.984L61.197,10.984L61.197,10.156L66.045,10.156L66.045,10.984L64.077,10.984L64.077,16L63.165,16ZM72.469,13.36L67.849,13.36C67.905,13.936 68.133,14.4 68.533,14.752C68.933,15.104 69.421,15.28 69.997,15.28C70.661,15.28 71.257,15.016 71.785,14.488L72.325,15.112C71.669,15.792 70.889,16.132 69.985,16.132C69.113,16.132 68.377,15.84 67.777,15.256C67.185,14.664 66.889,13.94 66.889,13.084C66.889,12.236 67.177,11.516 67.753,10.924C68.337,10.324 69.045,10.024 69.877,10.024C70.637,10.024 71.269,10.272 71.773,10.768C72.285,11.264 72.541,11.896 72.541,12.664C72.541,12.888 72.517,13.12 72.469,13.36ZM67.885,12.544L71.593,12.544C71.585,12.032 71.417,11.624 71.089,11.32C70.761,11.016 70.349,10.864 69.853,10.864C69.365,10.864 68.941,11.02 68.581,11.332C68.221,11.636 67.989,12.04 67.885,12.544ZM78.653,10.024L78.989,10.024L78.989,16L78.065,16L78.065,11.872L74.501,16.132L74.165,16.132L74.165,10.156L75.089,10.156L75.089,14.296L78.653,10.024ZM74.897,7.228L74.897,6.856L75.677,6.856L75.677,7.204C75.677,7.596 75.765,7.9 75.941,8.116C76.125,8.324 76.381,8.428 76.709,8.428C77.045,8.428 77.301,8.324 77.477,8.116C77.661,7.9 77.753,7.596 77.753,7.204L77.753,6.856L78.533,6.856L78.533,7.228C78.533,7.796 78.365,8.256 78.028,8.608C77.701,8.952 77.26,9.124 76.709,9.124C76.165,9.124 75.725,8.952 75.388,8.608C75.061,8.256 74.897,7.796 74.897,7.228Z" style="fill:rgb(119,119,119);fill-rule:nonzero;"></path>
        <path d="M8.946,4.988C9.313,4.64 9.893,4.258 10.236,4.139C11.054,3.853 12.679,3.834 13.284,4.102C15.517,5.092 16.165,5.942 16.131,7.842C16.125,8.159 16.103,8.506 16.073,8.809C16.043,9.108 16.004,9.365 15.964,9.507C15.883,9.793 15.906,10.267 16.015,10.56C16.096,10.778 16.121,10.968 16.086,11.17C16.058,11.333 15.991,11.503 15.882,11.704C14.841,13.633 14.475,14.641 14.533,15.422C14.592,16.209 14.653,16.274 15.84,16.831C18.236,17.955 18.942,18.394 19.533,19.126C19.71,19.345 19.873,19.624 20,19.912L19.062,19.912C18.953,19.772 18.804,19.608 18.636,19.417C18.243,18.968 17.45,18.465 16.519,18.075C15.7,17.733 14.722,17.206 14.345,16.904C13.722,16.406 13.661,16.256 13.661,15.226C13.661,14.463 13.795,13.874 14.075,13.414C14.303,13.04 14.49,12.522 14.49,12.265C14.491,12.007 14.586,11.796 14.703,11.796C14.82,11.796 15.02,11.565 15.149,11.283C15.239,11.084 15.281,10.93 15.277,10.799C15.273,10.684 15.232,10.587 15.156,10.495C15.003,10.31 14.991,9.955 15.121,9.396C15.41,8.144 15.358,6.739 15.004,6.232C14.829,5.982 14.214,5.539 13.637,5.249C11.942,4.395 10.013,4.647 9.245,5.823C8.742,6.591 8.599,7.837 8.867,9.093C9.043,9.915 9.041,10.257 8.859,10.477C8.679,10.695 8.677,10.898 8.851,11.283C8.98,11.565 9.18,11.796 9.297,11.796C9.414,11.796 9.509,12.007 9.51,12.265C9.51,12.522 9.697,13.04 9.925,13.414C10.201,13.868 10.339,14.463 10.339,15.196C10.339,16.128 10.252,16.379 9.769,16.834C9.455,17.13 8.477,17.671 7.596,18.035C6.552,18.466 5.775,18.947 5.365,19.416C5.197,19.608 5.048,19.772 4.938,19.912L4,19.912C4.127,19.624 4.29,19.345 4.467,19.126C5.058,18.394 5.764,17.955 8.16,16.831C9.368,16.264 9.407,16.22 9.47,15.368C9.531,14.521 9.338,13.999 8.114,11.704C7.864,11.236 7.838,10.959 8,10.529C8.144,10.145 8.145,9.622 8,8.891C7.698,7.36 8.072,5.816 8.946,4.988Z" style="fill:rgb(119,119,119);fill-rule:nonzero;"></path>
        <path d="M23,1L1,1L1,23L23,23L23,1ZM22,2.088L2,2L2,22.264L22,22.176L22,2.088Z" style="fill:rgb(119,119,119);"></path>
        <path d="M137.02,16L137.02,10.156L141.688,10.156L141.688,16L140.752,16L140.752,10.984L137.944,10.984L137.944,16L137.02,16ZM144.167,10.156L148.127,10.156L148.127,16L147.203,16L147.203,10.984L145.031,10.984L145.007,11.704C144.951,13.28 144.791,14.392 144.527,15.04C144.263,15.688 143.795,16.024 143.123,16.048C143.003,16.048 142.899,16.032 142.811,16L142.811,15.22C142.939,15.236 143.019,15.244 143.051,15.244C143.419,15.244 143.683,14.96 143.843,14.392C144.011,13.824 144.107,12.92 144.131,11.68L144.167,10.156ZM149.748,13.072C149.732,12.24 150.028,11.52 150.636,10.912C151.252,10.304 151.976,10.008 152.808,10.024C153.648,10.008 154.372,10.304 154.98,10.912C155.588,11.52 155.884,12.24 155.868,13.072C155.884,13.896 155.584,14.616 154.968,15.232C154.352,15.84 153.628,16.136 152.796,16.12C151.964,16.136 151.244,15.84 150.636,15.232C150.028,14.616 149.732,13.896 149.748,13.072ZM154.92,13.084C154.92,12.46 154.716,11.936 154.308,11.512C153.908,11.088 153.408,10.876 152.808,10.876C152.208,10.876 151.704,11.088 151.296,11.512C150.896,11.928 150.696,12.452 150.696,13.084C150.696,13.7 150.896,14.22 151.296,14.644C151.704,15.06 152.204,15.268 152.796,15.268C153.388,15.268 153.888,15.056 154.296,14.632C154.712,14.208 154.92,13.692 154.92,13.084ZM165.197,17.692L165.197,16L157.493,16L157.493,10.156L158.417,10.156L158.417,15.184L160.865,15.184L160.865,10.156L161.789,10.156L161.789,15.184L164.249,15.184L164.249,10.156L165.173,10.156L165.173,15.184L166.121,15.184L166.121,17.692L165.197,17.692ZM171.951,12.4L171.951,16L171.087,16L171.087,15.244C170.639,15.836 169.983,16.132 169.119,16.132C168.511,16.132 168.019,15.984 167.643,15.688C167.267,15.384 167.079,14.984 167.079,14.488C167.079,13.992 167.271,13.596 167.655,13.3C168.039,13.004 168.547,12.856 169.179,12.856L171.027,12.856L171.027,12.352C171.027,11.88 170.899,11.516 170.643,11.26C170.395,11.004 170.051,10.876 169.611,10.876C168.955,10.876 168.387,11.188 167.907,11.812L167.295,11.308C167.815,10.452 168.607,10.024 169.671,10.024C170.375,10.024 170.931,10.232 171.339,10.648C171.747,11.056 171.951,11.64 171.951,12.4ZM171.027,13.756L171.027,13.612L169.287,13.612C168.447,13.612 168.027,13.888 168.027,14.44C168.027,14.728 168.139,14.956 168.363,15.124C168.595,15.284 168.887,15.364 169.239,15.364C169.727,15.364 170.147,15.208 170.499,14.896C170.851,14.584 171.027,14.204 171.027,13.756ZM182.254,13.468C182.254,14.22 181.99,14.852 181.462,15.364C180.942,15.876 180.306,16.132 179.554,16.132C178.802,16.132 178.162,15.876 177.634,15.364C177.114,14.852 176.854,14.216 176.854,13.456C176.854,13.056 176.926,12.692 177.07,12.364C177.246,12.004 177.482,11.608 177.778,11.176C177.81,11.136 177.842,11.092 177.874,11.044C177.914,10.988 177.938,10.952 177.946,10.936L179.914,8.08L181.03,8.08L179.014,10.984C179.206,10.912 179.426,10.876 179.674,10.876C180.378,10.876 180.982,11.128 181.486,11.632C181.998,12.136 182.254,12.748 182.254,13.468ZM181.33,13.468C181.33,12.972 181.158,12.548 180.814,12.196C180.47,11.844 180.05,11.668 179.554,11.668C179.058,11.668 178.638,11.844 178.294,12.196C177.95,12.548 177.778,12.972 177.778,13.468C177.778,13.972 177.95,14.4 178.294,14.752C178.638,15.104 179.058,15.28 179.554,15.28C180.05,15.28 180.47,15.104 180.814,14.752C181.158,14.4 181.33,13.972 181.33,13.468ZM188.863,13.468C188.863,14.22 188.599,14.852 188.071,15.364C187.551,15.876 186.915,16.132 186.163,16.132C185.411,16.132 184.771,15.876 184.243,15.364C183.723,14.852 183.463,14.216 183.463,13.456C183.463,13.056 183.535,12.692 183.679,12.364C183.855,12.004 184.091,11.608 184.387,11.176C184.419,11.136 184.451,11.092 184.483,11.044C184.523,10.988 184.547,10.952 184.555,10.936L186.523,8.08L187.639,8.08L185.623,10.984C185.815,10.912 186.035,10.876 186.283,10.876C186.987,10.876 187.591,11.128 188.095,11.632C188.607,12.136 188.863,12.748 188.863,13.468ZM187.939,13.468C187.939,12.972 187.767,12.548 187.423,12.196C187.079,11.844 186.659,11.668 186.163,11.668C185.667,11.668 185.247,11.844 184.903,12.196C184.559,12.548 184.387,12.972 184.387,13.468C184.387,13.972 184.559,14.4 184.903,14.752C185.247,15.104 185.667,15.28 186.163,15.28C186.659,15.28 187.079,15.104 187.423,14.752C187.767,14.4 187.939,13.972 187.939,13.468ZM190.493,16L190.493,10.024L190.829,10.024L193.601,13.312L196.361,10.024L196.685,10.024L196.685,16L195.761,16L195.761,12.052L193.769,14.428L193.409,14.428L191.417,12.052L191.417,16L190.493,16ZM199.547,10.912L201.647,10.912L201.647,11.632L198.119,11.632L198.119,11.452L199.895,9.544C200.167,9.256 200.363,9.012 200.483,8.812C200.603,8.612 200.663,8.396 200.663,8.164C200.663,7.916 200.583,7.708 200.423,7.54C200.271,7.372 200.075,7.288 199.835,7.288C199.579,7.288 199.371,7.372 199.211,7.54C199.059,7.708 198.983,7.928 198.983,8.2L199.007,8.584L198.227,8.584C198.195,8.464 198.179,8.32 198.179,8.152C198.179,7.728 198.335,7.356 198.647,7.036C198.959,6.716 199.355,6.556 199.835,6.556C200.307,6.556 200.695,6.704 200.999,7C201.311,7.288 201.467,7.656 201.467,8.104C201.467,8.424 201.383,8.72 201.215,8.992C201.055,9.264 200.783,9.604 200.399,10.012L199.547,10.912Z" style="fill:rgb(119,119,119);fill-rule:nonzero;"></path>
        <path d="M125.003,21L120.969,21.027L120.978,19.975L123.243,19.955L119.808,16.52L120.558,15.769L123.963,19.174L123.982,16.972L125.034,16.962L125.003,21Z" style="fill:rgb(119,119,119);fill-rule:nonzero;"></path>
        <path d="M107.034,3.031L111.067,3.004L111.058,4.056L108.793,4.076L112.229,7.511L111.479,8.261L108.074,4.857L108.055,7.059L107.003,7.068L107.034,3.031Z" style="fill:rgb(119,119,119);fill-rule:nonzero;"></path>
        <path d="M107.034,21L107.007,16.966L108.059,16.976L108.078,19.241L111.514,15.805L112.264,16.555L108.86,19.96L111.062,19.979L111.071,21.031L107.034,21Z" style="fill:rgb(119,119,119);fill-rule:nonzero;"></path>
        <path d="M125.003,3.031L125.03,7.064L123.978,7.055L123.958,4.79L120.522,8.226L119.772,7.476L123.177,4.071L120.974,4.052L120.965,3L125.003,3.031Z" style="fill:rgb(119,119,119);fill-rule:nonzero;"></path>
        <path d="M127,1L105,1L105,23L127,23L127,1ZM126,2.088L106,2L106,22L126,22.088L126,2.088Z" style="fill:rgb(119,119,119);"></path>
        <path d="M270.098,16L270.098,10.156L271.022,10.156L271.022,16L270.098,16ZM272.27,12.808L275.018,16L273.854,16L271.142,12.832L273.602,10.156L274.754,10.156L272.27,12.808ZM276.178,7.924C276.178,7.74 276.242,7.584 276.37,7.456C276.506,7.32 276.674,7.252 276.874,7.252C277.058,7.252 277.218,7.32 277.354,7.456C277.49,7.584 277.558,7.74 277.558,7.924C277.558,8.116 277.49,8.276 277.354,8.404C277.226,8.532 277.066,8.596 276.874,8.596C276.674,8.596 276.506,8.532 276.37,8.404C276.242,8.276 276.178,8.116 276.178,7.924ZM276.406,16L276.406,10.156L277.33,10.156L277.33,16L276.406,16ZM279.485,16L279.485,10.024L279.821,10.024L282.593,13.312L285.353,10.024L285.677,10.024L285.677,16L284.753,16L284.753,12.052L282.761,14.428L282.401,14.428L280.409,12.052L280.409,16L279.485,16ZM287.711,16L287.711,10.156L288.635,10.156L288.635,12.484L291.503,12.484L291.503,10.156L292.427,10.156L292.427,16L291.503,16L291.503,13.3L288.635,13.3L288.635,16L287.711,16ZM298.83,12.4L298.83,16L297.966,16L297.966,15.244C297.518,15.836 296.862,16.132 295.998,16.132C295.39,16.132 294.898,15.984 294.522,15.688C294.146,15.384 293.958,14.984 293.958,14.488C293.958,13.992 294.15,13.596 294.534,13.3C294.918,13.004 295.426,12.856 296.058,12.856L297.906,12.856L297.906,12.352C297.906,11.88 297.778,11.516 297.522,11.26C297.274,11.004 296.93,10.876 296.49,10.876C295.834,10.876 295.266,11.188 294.786,11.812L294.174,11.308C294.694,10.452 295.486,10.024 296.55,10.024C297.254,10.024 297.81,10.232 298.218,10.648C298.626,11.056 298.83,11.64 298.83,12.4ZM297.906,13.756L297.906,13.612L296.166,13.612C295.326,13.612 294.906,13.888 294.906,14.44C294.906,14.728 295.018,14.956 295.242,15.124C295.474,15.284 295.766,15.364 296.118,15.364C296.606,15.364 297.026,15.208 297.378,14.896C297.73,14.584 297.906,14.204 297.906,13.756ZM301.849,16L301.849,10.984L299.881,10.984L299.881,10.156L304.729,10.156L304.729,10.984L302.761,10.984L302.761,16L301.849,16Z" style="fill:rgb(119,119,119);fill-rule:nonzero;"></path>
        <g transform="matrix(1,0,0,1,11.8083,0)">
            <path d="M298.83,12.4L298.83,16L297.966,16L297.966,15.244C297.518,15.836 296.862,16.132 295.998,16.132C295.39,16.132 294.898,15.984 294.522,15.688C294.146,15.384 293.958,14.984 293.958,14.488C293.958,13.992 294.15,13.596 294.534,13.3C294.918,13.004 295.426,12.856 296.058,12.856L297.906,12.856L297.906,12.352C297.906,11.88 297.778,11.516 297.522,11.26C297.274,11.004 296.93,10.876 296.49,10.876C295.834,10.876 295.266,11.188 294.786,11.812L294.174,11.308C294.694,10.452 295.486,10.024 296.55,10.024C297.254,10.024 297.81,10.232 298.218,10.648C298.626,11.056 298.83,11.64 298.83,12.4ZM297.906,13.756L297.906,13.612L296.166,13.612C295.326,13.612 294.906,13.888 294.906,14.44C294.906,14.728 295.018,14.956 295.242,15.124C295.474,15.284 295.766,15.364 296.118,15.364C296.606,15.364 297.026,15.208 297.378,14.896C297.73,14.584 297.906,14.204 297.906,13.756Z" style="fill:rgb(119,119,119);fill-rule:nonzero;"></path>
        </g>
        <g transform="matrix(1.02182,0,0,1.02182,-2.13026,4.29271)">
            <text x="257.042px" y="11.587px" style="font-family:'CeraPRO-Regular', 'Cera PRO';font-size:12px;fill:rgb(119,119,119);">1</text>
        </g>
        <path d="M250,1L250,23L228,23L228,1L250,1ZM242,2.057L242,11L243,11L243,2.062L249,2.088L249,10L246,10L246,11L249,11L249,17L242,17L242,18L249,18L249,22L229,22.088L229,17L236,17L236,9L235,9L235,16L229,16L229,2L242,2.057Z" style="fill:rgb(119,119,119);"></path>
        <path d="M373.808,14.236C373.808,14.764 373.616,15.192 373.232,15.52C372.856,15.84 372.356,16 371.732,16L369.02,16L369.02,10.156L371.432,10.156C372.008,10.156 372.464,10.296 372.8,10.576C373.144,10.856 373.316,11.232 373.316,11.704C373.316,12.192 373.112,12.568 372.704,12.832C373.44,13.088 373.808,13.556 373.808,14.236ZM369.944,10.984L369.944,12.544L371.444,12.544C372.084,12.544 372.404,12.28 372.404,11.752C372.404,11.24 372.084,10.984 371.444,10.984L369.944,10.984ZM372.884,14.236C372.884,13.964 372.776,13.752 372.56,13.6C372.352,13.44 372.056,13.36 371.672,13.36L369.944,13.36L369.944,15.184L371.672,15.184C372.048,15.184 372.344,15.1 372.56,14.932C372.776,14.756 372.884,14.524 372.884,14.236ZM379.927,12.4L379.927,16L379.063,16L379.063,15.244C378.615,15.836 377.959,16.132 377.095,16.132C376.487,16.132 375.995,15.984 375.619,15.688C375.243,15.384 375.055,14.984 375.055,14.488C375.055,13.992 375.247,13.596 375.631,13.3C376.015,13.004 376.523,12.856 377.155,12.856L379.003,12.856L379.003,12.352C379.003,11.88 378.875,11.516 378.619,11.26C378.371,11.004 378.027,10.876 377.587,10.876C376.931,10.876 376.363,11.188 375.883,11.812L375.271,11.308C375.791,10.452 376.583,10.024 377.647,10.024C378.351,10.024 378.907,10.232 379.315,10.648C379.723,11.056 379.927,11.64 379.927,12.4ZM379.003,13.756L379.003,13.612L377.263,13.612C376.423,13.612 376.003,13.888 376.003,14.44C376.003,14.728 376.115,14.956 376.339,15.124C376.571,15.284 376.863,15.364 377.215,15.364C377.703,15.364 378.123,15.208 378.475,14.896C378.827,14.584 379.003,14.204 379.003,13.756ZM381.887,16L381.887,10.156L382.811,10.156L382.811,12.484L385.679,12.484L385.679,10.156L386.603,10.156L386.603,16L385.679,16L385.679,13.3L382.811,13.3L382.811,16L381.887,16ZM388.625,16L388.625,10.156L389.549,10.156L389.549,12.484L392.417,12.484L392.417,10.156L393.341,10.156L393.341,16L392.417,16L392.417,13.3L389.549,13.3L389.549,16L388.625,16ZM399.744,12.4L399.744,16L398.88,16L398.88,15.244C398.432,15.836 397.776,16.132 396.912,16.132C396.304,16.132 395.812,15.984 395.436,15.688C395.06,15.384 394.872,14.984 394.872,14.488C394.872,13.992 395.064,13.596 395.448,13.3C395.832,13.004 396.34,12.856 396.972,12.856L398.82,12.856L398.82,12.352C398.82,11.88 398.692,11.516 398.436,11.26C398.188,11.004 397.844,10.876 397.404,10.876C396.748,10.876 396.18,11.188 395.7,11.812L395.088,11.308C395.608,10.452 396.4,10.024 397.464,10.024C398.168,10.024 398.724,10.232 399.132,10.648C399.54,11.056 399.744,11.64 399.744,12.4ZM398.82,13.756L398.82,13.612L397.08,13.612C396.24,13.612 395.82,13.888 395.82,14.44C395.82,14.728 395.932,14.956 396.156,15.124C396.388,15.284 396.68,15.364 397.032,15.364C397.52,15.364 397.94,15.208 398.292,14.896C398.644,14.584 398.82,14.204 398.82,13.756Z" style="fill:rgb(119,119,119);fill-rule:nonzero;"></path>
        <path d="M359,1L337,1L337,23L359,23L359,1ZM358,2.088L338,2L338,22L358,22.088L358,2.088Z" style="fill:rgb(119,119,119);"></path>
        <path d="M345.95,7.879C345.773,7.732 345.792,7.649 346.071,7.352C346.253,7.158 346.571,7 346.777,7C346.983,7 347.275,7.112 347.426,7.248C347.637,7.439 347.7,7.716 347.7,8.447C347.7,8.982 347.766,9.399 347.85,9.399C347.932,9.399 348,9.331 348,9.249C348,9.166 348.129,9.099 348.288,9.099C348.446,9.099 348.614,9.183 348.663,9.286C348.732,9.436 348.768,9.436 348.837,9.286C348.886,9.183 349.03,9.099 349.158,9.099C349.287,9.099 349.482,9.217 349.591,9.361C349.701,9.505 349.793,9.843 349.795,10.111L349.8,10.598L352.8,10.598C355.6,10.598 355.82,10.618 356.1,10.898C356.265,11.063 356.4,11.336 356.4,11.505C356.4,11.673 356.241,11.96 356.047,12.142C355.834,12.34 355.553,12.945 355.341,13.662C355.13,14.377 354.787,15.117 354.481,15.518L353.972,16.184L354.968,18.367L356.676,18.367C356.855,18.367 357,18.508 357,18.683C357,18.858 356.855,19 356.676,19L339.324,19C339.145,19 339,18.858 339,18.683C339,18.508 339.145,18.367 339.324,18.367L341.033,18.367L341.898,16.431L341.356,15.876C341.059,15.57 340.682,15.016 340.52,14.645C340.357,14.274 340.178,13.652 340.121,13.263C340.058,12.835 339.876,12.402 339.659,12.168C339.461,11.956 339.301,11.667 339.302,11.527C339.304,11.387 339.365,11.178 339.438,11.062C339.52,10.933 339.49,10.625 339.36,10.257C339.245,9.929 339.15,9.505 339.15,9.315C339.15,9.126 339.26,8.861 339.394,8.727C339.542,8.579 339.822,8.501 340.106,8.528C340.501,8.567 340.679,8.734 341.232,9.586L341.888,10.598L346.182,10.598L346.228,10.036C346.269,9.548 346.329,9.467 346.688,9.426C347.086,9.38 347.1,9.348 347.1,8.489C347.1,7.719 347.062,7.6 346.818,7.6C346.664,7.6 346.452,7.702 346.349,7.826C346.203,8.002 346.113,8.014 345.95,7.879ZM353.14,18.367L342.715,18.367L343.861,17.194L351.975,17.196L352.538,17.729C352.847,18.022 353.143,18.328 353.143,18.364C353.143,18.364 353.142,18.366 353.14,18.367ZM354.226,18.367L354.196,18.367C354.087,18.336 353.756,18.069 353.396,17.715C352.657,16.987 352.653,16.978 352.987,16.792C353.173,16.689 353.362,16.602 353.406,16.599C353.451,16.597 353.674,16.973 353.901,17.437C354.128,17.9 354.276,18.317 354.229,18.364L354.226,18.367ZM340.934,10.261C340.837,10.075 340.627,9.738 340.468,9.511C340.31,9.284 340.083,9.099 339.965,9.099C339.847,9.099 339.75,9.175 339.75,9.269C339.75,9.362 339.828,9.7 339.924,10.018C340.081,10.542 340.146,10.598 340.604,10.598C341.082,10.598 341.1,10.579 340.934,10.261ZM348,10.598C349.1,10.598 349.2,10.573 349.2,10.298C349.2,10.023 349.1,9.998 348,9.998C346.9,9.998 346.8,10.023 346.8,10.298C346.8,10.573 346.9,10.598 348,10.598ZM347.934,11.761C354.742,11.727 355.725,11.694 355.725,11.497C355.725,11.301 354.738,11.268 347.897,11.234C342.345,11.206 340.04,11.243 339.968,11.359C339.912,11.449 339.928,11.586 340.004,11.662C340.086,11.743 343.322,11.784 347.934,11.761ZM354.74,13.594C354.911,13.034 355.05,12.535 355.05,12.486C355.05,12.437 351.802,12.397 347.833,12.397L340.616,12.397L340.716,13.109C340.772,13.5 340.987,14.176 341.195,14.609C341.403,15.043 341.804,15.573 342.086,15.788C342.369,16.003 342.853,16.27 343.162,16.38C343.577,16.528 344.772,16.583 347.7,16.587C349.886,16.59 351.914,16.526 352.206,16.445C352.498,16.364 352.96,16.134 353.231,15.934C353.503,15.733 353.883,15.354 354.078,15.092C354.272,14.829 354.57,14.155 354.74,13.594ZM342.528,17.791C342.897,17.429 343.148,17.087 343.087,17.03C343.025,16.974 342.835,16.886 342.664,16.834C342.403,16.756 342.296,16.862 342.001,17.491C341.807,17.904 341.696,18.289 341.753,18.346C341.81,18.403 342.158,18.153 342.528,17.791Z" style="fill:rgb(119,119,119);"></path>
    </g>
</svg>
